<svg height="512pt" viewBox="0 -42 512 512" width="512pt" xmlns="http://www.w3.org/2000/svg"><path d="m0 351.195312v-305.375c0-25.304687 20.515625-45.820312 45.820312-45.820312h420.359376c25.304687 0 45.820312 20.515625 45.820312 45.820312v305.375c0 25.308594-20.515625 45.820313-45.820312 45.820313h-420.359376c-25.304687 0-45.820312-20.515625-45.820312-45.820313zm0 0" fill="#e26e7e"/><path d="m209.855469 0h-164.035157c-25.304687 0-45.820312 20.515625-45.820312 45.820312v305.375c0 25.308594 20.515625 45.820313 45.820312 45.820313h226.183594c-54.601562-74.921875-85.273437-263.945313-62.148437-397.015625zm0 0" fill="#d9495d"/><path d="m182.21875 362.359375h-126.320312c-11.730469 0-21.242188-9.511719-21.242188-21.242187v-285.21875c0-11.730469 9.511719-21.242188 21.242188-21.242188h126.320312zm0 0" fill="#7acefa"/><g fill="#4e5660"><path d="m127.601562 100.605469h-38.328124c-4.140626 0-7.5-3.355469-7.5-7.5 0-4.140625 3.359374-7.5 7.5-7.5h38.328124c4.140626 0 7.5 3.359375 7.5 7.5 0 4.144531-3.359374 7.5-7.5 7.5zm0 0"/><path d="m127.601562 125.039062h-38.328124c-4.140626 0-7.5-3.355468-7.5-7.5 0-4.140624 3.359374-7.5 7.5-7.5h38.328124c4.140626 0 7.5 3.359376 7.5 7.5 0 4.144532-3.359374 7.5-7.5 7.5zm0 0"/><path d="m127.601562 149.472656h-38.328124c-4.140626 0-7.5-3.355468-7.5-7.5 0-4.140625 3.359374-7.5 7.5-7.5h38.328124c4.140626 0 7.5 3.359375 7.5 7.5 0 4.144532-3.359374 7.5-7.5 7.5zm0 0"/><path d="m163.855469 222.078125c0 13.015625-10.554688 23.570313-23.570313 23.570313s-23.570312-10.554688-23.570312-23.570313 10.554687-23.570313 23.570312-23.570313 23.570313 10.554688 23.570313 23.570313zm0 0"/></g><path d="m140.285156 229.578125h-38.09375c-4.140625 0-7.5-3.359375-7.5-7.5s3.359375-7.5 7.5-7.5h38.09375c4.140625 0 7.5 3.359375 7.5 7.5s-3.359375 7.5-7.5 7.5zm0 0" fill="#8eafe2"/><path d="m121.621094 428.148438h-46.832032c-3.300781 0-5.980468-2.675782-5.980468-5.980469v-25.152344h58.792968v25.152344c0 3.304687-2.675781 5.980469-5.980468 5.980469zm0 0" fill="#4e5660"/><path d="m390.378906 428.148438h46.832032c3.300781 0 5.980468-2.675782 5.980468-5.980469v-25.152344h-58.792968v25.152344c0 3.304687 2.675781 5.980469 5.980468 5.980469zm0 0" fill="#4e5660"/><path d="m182.21875 34.65625h147.5625v327.703125h-147.5625zm0 0" fill="#fff"/><path d="m205.144531 34.65625h-22.925781v327.703125h69.757812c-37.617187-79.945313-58.0625-216.679687-46.832031-327.703125zm0 0" fill="#f6e3a3"/><path d="m275.164062 100.605469h-38.328124c-4.140626 0-7.5-3.355469-7.5-7.5 0-4.140625 3.359374-7.5 7.5-7.5h38.328124c4.140626 0 7.5 3.359375 7.5 7.5 0 4.144531-3.359374 7.5-7.5 7.5zm0 0" fill="#4e5660"/><path d="m275.164062 125.039062h-38.328124c-4.140626 0-7.5-3.355468-7.5-7.5 0-4.140624 3.359374-7.5 7.5-7.5h38.328124c4.140626 0 7.5 3.359376 7.5 7.5 0 4.144532-3.359374 7.5-7.5 7.5zm0 0" fill="#4e5660"/><path d="m275.164062 149.472656h-38.328124c-4.140626 0-7.5-3.355468-7.5-7.5 0-4.140625 3.359374-7.5 7.5-7.5h38.328124c4.140626 0 7.5 3.359375 7.5 7.5 0 4.144532-3.359374 7.5-7.5 7.5zm0 0" fill="#4e5660"/><path d="m311.414062 222.078125c0 13.015625-10.550781 23.570313-23.566406 23.570313-13.019531 0-23.570312-10.554688-23.570312-23.570313s10.550781-23.570313 23.570312-23.570313c13.015625 0 23.566406 10.554688 23.566406 23.570313zm0 0" fill="#4e5660"/><path d="m287.847656 229.578125h-38.09375c-4.140625 0-7.5-3.359375-7.5-7.5s3.359375-7.5 7.5-7.5h38.09375c4.140625 0 7.5 3.359375 7.5 7.5s-3.359375 7.5-7.5 7.5zm0 0" fill="#8eafe2"/><path d="m456.101562 362.359375h-126.320312v-327.703125h126.320312c11.730469 0 21.242188 9.511719 21.242188 21.242188v285.21875c0 11.730468-9.511719 21.242187-21.242188 21.242187zm0 0" fill="#f7ef87"/><path d="m422.726562 100.605469h-38.328124c-4.140626 0-7.5-3.355469-7.5-7.5 0-4.140625 3.359374-7.5 7.5-7.5h38.328124c4.140626 0 7.5 3.359375 7.5 7.5 0 4.144531-3.359374 7.5-7.5 7.5zm0 0" fill="#4e5660"/><path d="m422.726562 125.039062h-38.328124c-4.140626 0-7.5-3.355468-7.5-7.5 0-4.140624 3.359374-7.5 7.5-7.5h38.328124c4.140626 0 7.5 3.359376 7.5 7.5 0 4.144532-3.359374 7.5-7.5 7.5zm0 0" fill="#4e5660"/><path d="m422.726562 149.472656h-38.328124c-4.140626 0-7.5-3.355468-7.5-7.5 0-4.140625 3.359374-7.5 7.5-7.5h38.328124c4.140626 0 7.5 3.359375 7.5 7.5 0 4.144532-3.359374 7.5-7.5 7.5zm0 0" fill="#4e5660"/><path d="m458.976562 222.078125c0 13.015625-10.550781 23.570313-23.570312 23.570313-13.015625 0-23.566406-10.554688-23.566406-23.570313s10.550781-23.570313 23.566406-23.570313c13.019531 0 23.570312 10.554688 23.570312 23.570313zm0 0" fill="#4e5660"/><path d="m435.40625 229.578125h-38.089844c-4.140625 0-7.5-3.359375-7.5-7.5s3.359375-7.5 7.5-7.5h38.089844c4.144531 0 7.5 3.359375 7.5 7.5s-3.355469 7.5-7.5 7.5zm0 0" fill="#8eafe2"/></svg>