<svg height="457pt" viewBox="-58 0 457 457.14286" width="457pt" xmlns="http://www.w3.org/2000/svg"><path d="m314.257812 100.445312v326.164063c0 11.816406-9.675781 21.390625-21.492187 21.390625h-243.65625c-11.816406 0-21.390625-9.574219-21.390625-21.390625v-326.164063zm0 0" fill="#d4c8bc"/><path d="m292.769531 457.144531h-243.664062c-16.828125 0-30.523438-13.699219-30.523438-30.539062v-326.160157c0-5.050781 4.085938-9.140624 9.140625-9.140624h286.535156c5.054688 0 9.144532 4.089843 9.144532 9.140624v326.160157c0 16.839843-13.742188 30.539062-30.632813 30.539062zm-255.902343-347.554687v317.015625c0 6.761719 5.488281 12.25 12.238281 12.25h243.664062c6.8125 0 12.347657-5.488281 12.347657-12.25v-317.015625zm0 0" fill="#2a3d4f"/><path d="m332.691406 83.839844v16.546875h-323.472656v-16.546875c0-17.828125 14.535156-32.273438 32.363281-32.273438h258.835938c17.828125 0 32.273437 14.445313 32.273437 32.273438zm0 0" fill="#4b6981"/><g fill="#2a3d4f"><path d="m332.695312 109.535156h-323.480468c-5.054688 0-9.1445315-4.089844-9.1445315-9.140625v-16.554687c0-22.839844 18.6249995-41.421875 41.5117185-41.421875h258.835938c22.839843 0 41.421875 18.582031 41.421875 41.421875v16.554687c0 5.050781-4.089844 9.140625-9.144532 9.140625zm-314.339843-18.285156h305.199219v-7.410156c0-12.757813-10.375-23.132813-23.136719-23.132813h-258.835938c-12.804687 0-23.226562 10.375-23.226562 23.132813zm0 0"/><path d="m220.144531 60.707031h-97.011719c-5.050781 0-9.140624-4.089843-9.140624-9.144531v-32.125c0-10.714844 8.722656-19.4375 19.445312-19.4375h76.410156c10.714844 0 19.4375 8.722656 19.4375 19.4375v32.125c0 5.054688-4.089844 9.144531-9.140625 9.144531zm-87.867187-18.289062h78.722656v-22.980469c0-.632812-.519531-1.152344-1.152344-1.152344h-76.410156c-.644531 0-1.160156.519532-1.160156 1.152344zm0 0"/><path d="m245.445312 390.320312c-5.050781 0-9.140624-4.089843-9.140624-9.140624v-213.910157c0-5.054687 4.089843-9.144531 9.140624-9.144531 5.054688 0 9.144532 4.089844 9.144532 9.144531v213.910157c0 5.050781-4.089844 9.140624-9.144532 9.140624zm0 0"/><path d="m170.992188 390.320312c-5.054688 0-9.144532-4.089843-9.144532-9.140624v-213.910157c0-5.054687 4.089844-9.144531 9.144532-9.144531 5.050781 0 9.140624 4.089844 9.140624 9.144531v213.910157c0 5.050781-4.089843 9.140624-9.140624 9.140624zm0 0"/><path d="m96.527344 390.320312c-5.054688 0-9.144532-4.089843-9.144532-9.140624v-213.910157c0-5.054687 4.089844-9.144531 9.144532-9.144531 5.054687 0 9.140625 4.089844 9.140625 9.144531v213.910157c0 5.050781-4.085938 9.140624-9.140625 9.140624zm0 0"/></g></svg>